<?xml version="1.0" standalone="no"?><!DOCTYPE svg PUBLIC "-//W3C//DTD SVG 1.1//EN" "http://www.w3.org/Graphics/SVG/1.1/DTD/svg11.dtd"><svg t="1689159953270" class="icon" viewBox="0 0 1024 1024" version="1.1" xmlns="http://www.w3.org/2000/svg" p-id="6357" xmlns:xlink="http://www.w3.org/1999/xlink" width="200" height="200"><path d="M951.9 74.2c-12.6-12.6-33.2-12.6-45.8 0L796 184.2l-67.3-67.3c-12.7-12.7-33.6-12.7-46.3 0-12.7 12.7-12.7 33.6 0 46.3l67.3 67.3-93.2 93.2-157-157c-12.7-12.7-33.6-12.7-46.3 0s-12.7 33.6 0 46.3l157 157-97.5 97.5c-43.5-34.2-98.4-54.5-158.1-54.5-141.5 0-256.2 114.7-256.2 256.2 0 141.2 114.3 255.8 255.4 256.2 0.8 0.1 1.6 0.1 2.4 0.1 18 0 32.5-14.5 32.5-32.4s-14.6-32.4-32.5-32.4h-1.7C248.7 860.7 163 775 163 669.2s85.7-191.5 191.5-191.5S546 563.4 546 669.2c0 25.1-4.8 49.1-13.6 71.1-2.6 4.7-4.1 10.1-4.1 15.8 0 17.9 14.6 32.4 32.5 32.4 14.3 0 26.4-9.1 30.8-21.9 12.4-30.1 19.2-62.9 19.2-97.4 0-58.5-19.6-112.4-52.6-155.6l120.9-120.9 139.5-139.5L951.9 120c12.6-12.6 12.6-33.2 0-45.8z" fill="#515151" p-id="6358"></path><path d="M447.1 855.3a32.5 32.4 0 1 0 65 0 32.5 32.4 0 1 0-65 0Z" fill="#515151" p-id="6359"></path></svg>